<?xml version="1.0" encoding="UTF-8"?>
<!-- Generator: Adobe Illustrator 16.0.0, SVG Export Plug-In . SVG Version: 6.00 Build 0)  -->
<!DOCTYPE svg PUBLIC "-//W3C//DTD SVG 1.1//EN" "http://www.w3.org/Graphics/SVG/1.1/DTD/svg11.dtd">
<svg version="1.1" id="Layer_1" xmlns="http://www.w3.org/2000/svg" xmlns:xlink="http://www.w3.org/1999/xlink" x="0px" y="0px" width="961px" height="234px" viewBox="0 0 961 234" enable-background="new 0 0 961 234" xml:space="preserve">
<g>
	<g>
		<path fill="#171617" d="M277.85,80.053c-9.061,0-16.845-3.251-23.349-9.758c-6.507-6.504-9.758-14.345-9.758-23.523    c0-9.061,3.251-16.842,9.758-23.349c6.504-6.504,14.289-9.758,23.349-9.758h91.306v24.917H277.85    c-2.325,0-4.269,0.784-5.837,2.353c-1.568,1.568-2.353,3.515-2.353,5.837c0,2.325,0.812,4.299,2.439,5.925    c1.625,1.628,3.542,2.439,5.75,2.439h57.502c9.061,0,16.872,3.275,23.437,9.82c6.561,6.545,9.845,14.395,9.845,23.548    c0,9.039-3.248,16.801-9.744,23.29c-6.496,6.488-14.327,9.73-23.491,9.73h-90.655V96.606h90.623c2.319,0,4.291-0.811,5.914-2.439    c1.623-1.625,2.437-3.542,2.437-5.75c0-2.323-0.814-4.296-2.439-5.924c-1.628-1.625-3.602-2.439-5.924-2.439H277.85z"/>
		<path fill="#F15922" d="M402.61,88.417c0,2.091,0.898,3.98,2.701,5.663c1.8,1.685,3.629,2.526,5.489,2.526h66.389v24.917h-66.389    c-9.061,0-16.845-3.25-23.349-9.757c-6.507-6.504-9.758-14.289-9.758-23.349V46.771c0-9.061,3.251-16.842,9.758-23.349    c6.504-6.504,14.289-9.758,23.349-9.758h65.343v24.917h-65.343c-2.325,0-4.269,0.784-5.837,2.353    c-1.568,1.568-2.352,3.515-2.352,5.837v8.364h70.57v24.917h-70.57V88.417z"/>
		<path fill="#0A59A2" d="M519.005,80.053l-8.538,14.699v26.771H485.55V88.068l33.63-57.85c2.902-5.11,6.91-9.148,12.023-12.11    c5.11-2.962,10.629-4.443,16.553-4.443c3.834,0,6.971,0.292,9.41,0.871c2.439,0.583,5.488,1.86,9.147,3.833    c3.659,1.977,7.114,5.925,10.368,11.849l33.281,57.85v33.455h-24.918V94.401l-8.189-14.348H519.005z M562.219,55.136    l-7.145-12.587c-0.813-1.377-1.742-2.355-2.787-2.932l-4.531-1.035h-2.962c-1.046,0-1.803,0.229-2.266,0.684l-1.742,3.411    l-7.318,12.459H562.219z"/>
		<path fill="#262626" d="M618.325,13.665h81.025c9.175,0,17.017,3.253,23.523,9.758c6.504,6.507,9.758,14.289,9.758,23.349    c0,2.557-0.061,4.386-0.175,5.489c-0.116,1.105-0.582,2.875-1.394,5.315c-0.814,2.439-1.511,4.182-2.091,5.227    c-0.466,1.28-1.28,2.674-2.439,4.182c5.342,6.042,8.016,13.186,8.016,21.433v33.106h-24.918V88.417c0-1.857-0.67-3.6-2.004-5.228    c-1.337-1.625-3.049-2.671-5.14-3.136h-59.245v41.47h-24.917V13.665z M700.222,38.582h-56.979v16.554h56.979    c2.322,0,4.296-0.812,5.925-2.439c1.625-1.625,2.439-3.6,2.439-5.925c0-2.205-0.814-4.122-2.439-5.75    C704.518,39.396,702.544,38.582,700.222,38.582z"/>
		<path fill="#F15922" d="M842.231,121.523h-66.388c-9.062,0-16.845-3.25-23.35-9.757c-6.507-6.504-9.758-14.289-9.758-23.349    V46.771c0-9.061,3.251-16.842,9.758-23.349c6.505-6.504,14.288-9.758,23.35-9.758h66.388v24.917h-66.388    c-1.977,0-3.834,0.814-5.576,2.439c-1.742,1.628-2.614,3.545-2.614,5.75v41.646c0,2.325,0.755,4.299,2.266,5.924    c1.856,1.511,3.833,2.265,5.925,2.265h66.388V121.523z"/>
		<path fill="#0A59A2" d="M875.511,80.053v41.47h-24.917V13.665h24.917v41.471h58.024V13.665h24.918v107.859h-24.918v-41.47H875.511    z"/>
	</g>
</g>
<rect x="249.938" y="162.646" fill="#0A59A2" width="711.062" height="64.463"/>
<g>
	<path fill="#FFFFFF" d="M343.324,210.135h-5.837l-4.313-20.824l-9.976,19.211c-0.668,1.307-1.598,1.961-2.788,1.961   c-1.336,0-2.353-0.668-3.049-2.004l-9.976-19.166l-4.269,20.822h-5.881l6.643-27.314c0.173-0.783,0.557-1.467,1.15-2.047   c0.594-0.58,1.281-0.871,2.063-0.871c1.128,0,2.199,0.98,3.212,2.941l9.959,19.514l9.996-19.535c1.016-1.947,2.09-2.92,3.223-2.92   c0.754,0,1.451,0.305,2.09,0.914c0.552,0.553,0.929,1.221,1.132,2.004L343.324,210.135z"/>
	<path fill="#FFFFFF" d="M394.945,180.338l-14.768,19.908v9.844h-5.14v-9.932l-15.16-19.82h6.691l11.157,14.586l10.494-14.586   H394.945z"/>
	<path fill="#FFFFFF" d="M447.041,210.09h-7.62l-8.32-8.363h-11.195v-5.184h13.94c1.917,0,3.528-0.42,4.835-1.26   c1.481-0.982,2.222-2.385,2.222-4.207c0-3.703-2.352-5.555-7.057-5.555h-16.989v24.568h-5.184v-29.752h21.345   c3.833,0,6.927,0.83,9.279,2.488c2.701,1.891,4.051,4.67,4.051,8.336c0,2.502-0.788,4.656-2.364,6.459   c-1.459,1.688-3.443,2.867-5.953,3.535L447.041,210.09z"/>
	<path fill="#FFFFFF" d="M491.172,210.09h-25.701v-29.752h25.701v5.184h-20.517v19.385h20.517V210.09z M489.821,197.588h-16.989   v-5.184h16.989V197.588z"/>
	<path fill="#FFFFFF" d="M542.313,200.898c0,2.818-1.001,5.082-3.005,6.797c-1.917,1.596-4.313,2.395-7.188,2.395h-22.695v-5.184   h22.695c1.423,0,2.657-0.318,3.703-0.959c1.19-0.783,1.786-1.844,1.786-3.18c0-1.334-0.61-2.365-1.83-3.092   c-1.017-0.611-2.236-0.916-3.659-0.916h-14.026c-2.585,0-4.748-0.711-6.491-2.135c-1.858-1.539-2.788-3.57-2.788-6.098   c0-2.498,0.93-4.516,2.788-6.055c1.743-1.424,3.906-2.135,6.491-2.135h22.435v5.184h-22.435c-0.988,0-1.83,0.275-2.526,0.828   c-0.697,0.551-1.046,1.293-1.046,2.221c0,0.959,0.349,1.699,1.046,2.223c0.696,0.521,1.538,0.783,2.526,0.783h14.026   c2.875,0,5.271,0.828,7.188,2.482C541.312,195.803,542.313,198.082,542.313,200.898z"/>
	<path fill="#FFFFFF" d="M586.05,210.09h-25.702v-29.752h25.702v5.184h-20.518v19.385h20.518V210.09z M584.699,197.588H567.71   v-5.184h16.989V197.588z"/>
	<path fill="#FFFFFF" d="M640.149,210.09h-7.62l-8.32-8.363h-11.195v-5.184h13.94c1.916,0,3.528-0.42,4.835-1.26   c1.481-0.982,2.222-2.385,2.222-4.207c0-3.703-2.353-5.555-7.057-5.555h-16.989v24.568h-5.184v-29.752h21.345   c3.834,0,6.927,0.83,9.279,2.488c2.7,1.891,4.051,4.67,4.051,8.336c0,2.502-0.788,4.656-2.364,6.459   c-1.459,1.688-3.443,2.867-5.952,3.535L640.149,210.09z"/>
	<path fill="#FFFFFF" d="M696.174,180.338l-16.991,27.313c-1.19,1.947-2.265,2.92-3.223,2.92c-0.93,0-1.989-0.973-3.18-2.92   l-16.639-27.313h6.682l13.251,22.086l13.431-22.086H696.174z"/>
	<path fill="#FFFFFF" d="M737.427,210.09l-6.689-0.043l-4.975-8.32h-14.124l3.127-5.184h7.859l-5.158-8.549L704.05,210.09h-6.656   l16.162-26.92c0.406-0.697,0.973-1.336,1.699-1.918c0.871-0.668,1.655-1.002,2.353-1.002c0.754,0,1.538,0.32,2.352,0.959   c0.696,0.553,1.263,1.205,1.698,1.961L737.427,210.09z"/>
	<path fill="#FFFFFF" d="M771.797,185.521h-11.718v24.568h-5.141v-24.568h-11.762v-5.184h28.62V185.521z"/>
	<path fill="#FFFFFF" d="M794.928,210.09h-5.184v-29.752h5.184V210.09z"/>
	<path fill="#FFFFFF" d="M853.04,194.887c0,4.387-1.409,8.016-4.226,10.891c-2.817,2.875-6.403,4.313-10.76,4.313h-8.32   c-4.327,0-7.906-1.438-10.738-4.313c-2.831-2.875-4.247-6.504-4.247-10.891c0-4.355,1.401-7.869,4.204-10.541   c2.802-2.672,6.396-4.008,10.781-4.008h8.32c4.414,0,8.016,1.336,10.804,4.008S853.04,190.531,853.04,194.887z M847.899,195.322   c0-2.875-0.922-5.227-2.766-7.057c-1.845-1.83-4.204-2.744-7.079-2.744h-8.32c-2.847,0-5.191,0.914-7.035,2.744   c-1.845,1.83-2.767,4.182-2.767,7.057c0,2.848,0.922,5.156,2.767,6.928c1.844,1.771,4.188,2.656,7.035,2.656h8.32   c2.875,0,5.234-0.885,7.079-2.656C846.978,200.479,847.899,198.17,847.899,195.322z"/>
	<path fill="#FFFFFF" d="M900.609,207.52c0,1.918-0.655,2.875-1.965,2.875c-0.962,0-2.038-0.59-3.231-1.773l-19.068-19.172v20.641   h-5.14v-27.182c0-0.697,0.188-1.301,0.566-1.809c0.377-0.508,0.914-0.762,1.611-0.762c0.958,0,1.945,0.508,2.962,1.523   l19.08,19.123v-20.646h5.185V207.52z"/>
</g>
<path fill="#F15922" d="M209.353,44.382c0,0-30.713-45.594-87.707-42.745c0,0-52.246-3.485-87.075,49.393  c0,0-28.813,45.596-6.333,97.84l26.28-15.199l-19.947-15.517c0,0,16.147-11.714,39.895,3.169l37.046-20.898L40.271,55.462  c0,0,19.948-10.132,37.996-0.948l65.703,27.545L209.353,44.382z"/>
<path fill="#0A59A2" d="M155.209,102.006l27.23-15.514c0,0,20.582,37.678-1.267,84.956c0,0-14.248,43.914-69.659,59.113  c0,0-63.327,20.578-110.505-38.947l65.227-38.313l2.85,24.697c0,0,17.415-6.551,17.415-36.412l36.096-20.58l3.799,83.588  c0,0,17.574-8.547,20.265-30.393L155.209,102.006z"/>
<g>
</g>
<g>
</g>
<g>
</g>
<g>
</g>
<g>
</g>
<g>
</g>
</svg>